Coordinates
version=1
nRows=9
nColumns=24
inDegrees=yes

Units are S.I. units (second, meters, Newtons, ...)
Angles are in degrees.

endheader
time	pelvis_tilt	pelvis_list	pelvis_rotation	pelvis_tx	pelvis_ty	pelvis_tz	hip_flexion_r	hip_adduction_r	hip_rotation_r	knee_angle_r	ankle_angle_r	subtalar_angle_r	mtp_angle_r	hip_flexion_l	hip_adduction_l	hip_rotation_l	knee_angle_l	ankle_angle_l	subtalar_angle_l	mtp_angle_l	lumbar_extension	lumbar_bending	lumbar_rotation
      1.27516667	     -0.73997745	      3.50553366	     -4.05151158	      0.22643533	      0.90838915	      0.30750887	     15.72233778	     -7.30886158	     -9.35199913	    -71.80819331	     -3.31213881	      4.46193479	      9.37302579	     13.02447627	      6.85693025	     -5.02519687	    -18.65886302	      8.70599054	     -7.89214013	      1.40324015	     -6.41355061	     -7.29550133	      3.26533591
      1.27933333	     -0.75468206	      3.35228360	     -3.91436851	      0.23157354	      0.90951451	      0.30724313	     16.35001312	     -7.10273758	     -9.51826176	    -71.49496768	     -2.61145356	      4.35395858	      9.31242151	     12.40317810	      6.76485530	     -4.89071889	    -18.13481208	      8.73384216	     -7.76831411	      1.41763192	     -6.45393400	     -7.09603032	      3.10565535
      1.28350000	     -0.73515142	      3.19305672	     -3.76425659	      0.23675045	      0.91069134	      0.30694667	     16.90560258	     -6.89596875	     -9.69611326	    -71.08904631	     -1.93224309	      4.33692428	      9.24206917	     11.72502107	      6.67439346	     -4.71994695	    -17.57222569	      8.76842762	     -7.65818755	      1.43403905	     -6.52977690	     -6.89789828	      2.86586473
      1.28766667	     -0.68386868	      3.03403049	     -3.60889421	      0.24194998	      0.91189505	      0.30663575	     17.40503584	     -6.69956973	     -9.88924046	    -70.61088583	     -1.32820199	      4.36604204	      9.11231472	     10.98938675	      6.58964976	     -4.51916087	    -16.95966834	      8.79642634	     -7.60043648	      1.46043830	     -6.61391431	     -6.71915481	      2.51765324
      1.29183333	     -0.64645611	      2.86183576	     -3.43814651	      0.24711618	      0.91305026	      0.30631322	     17.89969571	     -6.48038134	    -10.08742267	    -70.06259667	     -0.72777715	      4.34426109	      8.99980828	     10.28667424	      6.48370473	     -4.32278687	    -16.37849016	      8.80613062	     -7.52071701	      1.48462121	     -6.70265379	     -6.50388809	      2.26975720
      1.29600000	     -0.63078494	      2.68142360	     -3.25138661	      0.25226510	      0.91413177	      0.30598840	     18.39901993	     -6.24740340	    -10.29727356	    -69.45127971	     -0.12729605	      4.27867950	      8.95286018	      9.62707701	      6.35671325	     -4.15742757	    -15.83238805	      8.78830802	     -7.39533739	      1.49689113	     -6.75779615	     -6.27580644	      2.11507153
      1.30016667	     -0.53658111	      2.52412674	     -3.06793950	      0.25743442	      0.91530862	      0.30562104	     18.79291759	     -6.05711353	    -10.50335334	    -68.77177526	      0.39381814	      4.30828581	      8.75642437	      8.83013802	      6.27729098	     -3.88526841	    -15.16922722	      8.75611816	     -7.40381592	      1.53625078	     -6.92414254	     -6.09091163	      1.67404688
      1.30433333	     -0.45828650	      2.31934407	     -2.86686057	      0.26258291	      0.91643821	      0.30527383	     19.17079843	     -5.80252030	    -10.72688591	    -68.00214840	      0.88705398	      4.31781408	      8.67211636	      8.08771851	      6.12487890	     -3.67369737	    -14.59199648	      8.78751965	     -7.29936588	      1.55617877	     -7.06466605	     -5.83229912	      1.49585655
      1.30850000	     -0.36767476	      2.14735489	     -2.66604606	      0.26773352	      0.91752281	      0.30488896	     19.52887524	     -5.59491551	    -10.94435385	    -67.19474126	      1.36278096	      4.31195900	      8.54956288	      7.31557399	      6.01119354	     -3.44410781	    -13.96540405	      8.76630218	     -7.23620536	      1.58198193	     -7.21121570	     -5.60526209	      1.19765895
